<svg xmlns="http://www.w3.org/2000/svg" viewBox="0 0 316.06536 510.87533">
	<path d="M330.01925,605.58566q0-140.65309-.06733-281.30615c-.00379-4.08174.90909-6.28882,4.82516-8.72787,17.03852-10.6121,33.768-21.75052,50.23538-33.23569,5.16992-3.60573,9.10592-3.76737,14.5896-.92379,17.37055,9.00748,35.02866,17.45908,52.514,26.09523.49359,2.48664,1.00757,5.07608,1.52158,7.66552v10.97856a30.94885,30.94885,0,0,0-.95537,5.41551q-.071,137.01931-.04156,274.03868h-17.9446V327.13716c0-.998.32888-2.16181-.07147-2.95809-.73668-1.46514-1.61534-3.29075-2.93984-3.95126-5.14893-2.56777-10.46841-4.80318-15.77628-7.03888-7.923-3.33719-15.88991-6.57009-24.08009-9.9471V605.58566ZM360.924,406.34257c7.66849-4.092,14.59752-7.72152,21.42842-11.52756a3.76981,3.76981,0,0,0,1.43559-2.82377c.10413-9.9011.06372-19.80373.06372-30.582-7.74086,4.47155-14.79276,8.48431-21.74855,12.65765a3.67811,3.67811,0,0,0-1.12953,2.7496C360.89253,386.43526,360.924,396.055,360.924,406.34257Zm-25.92,61.53661c7.28717-3.813,14.22571-7.38788,21.08668-11.1062a3.65077,3.65077,0,0,0,1.75768-2.53756c.12293-10.03064.07836-20.06335.07836-30.84612-7.68338,4.17-14.70182,7.88514-21.58421,11.83775-.82468.47359-1.26953,2.23324-1.28184,3.4032C334.96014,448.20292,335.00407,457.77715,335.00407,467.87918Zm26.1463,3.42937v31.84872c7.41991-4.00488,14.44111-7.74419,21.38514-11.622a3.27139,3.27139,0,0,0,1.25717-2.449c.08592-10.021.05543-20.04307.05543-30.78089C375.7193,462.96224,368.39382,467.15891,361.15037,471.30855Zm-3.2173.51179c-7.53722,4.12262-14.80775,8.06892-22.02417,12.11193a2.574,2.574,0,0,0-.8666,1.94877c-.05412,10.1466-.0376,20.29359-.0376,30.64565,6.72057-3.64638,12.835-7.10474,19.08846-10.28938,2.60513-1.32663,3.95918-2.86157,3.90153-5.97956C357.823,490.96907,357.93307,481.67521,357.93307,471.82034Zm2.99081-113.96695c6.779-3.69853,13.14126-7.03394,19.3397-10.65073,1.47675-.8617,3.387-2.634,3.42952-4.038.29764-9.838.15764-19.68922.15764-30.06939-7.28512,3.998-14.08822,7.52633-20.62545,11.49376-1.29177.784-2.1624,3.24336-2.20122,4.95343C360.81317,338.83516,360.92388,348.13515,360.92388,357.85339Zm-3.09235-31.57094c-7.77529,4.40352-14.83236,8.32793-21.7761,12.44389-.70087.41542-.9993,1.986-1.00736,3.02419-.07448,9.5929-.04395,19.18661-.04395,29.38045l22.82741-12.49631Zm-22.71,93.13325c6.77316-3.59244,12.78037-6.91283,18.91489-9.97782,3.24689-1.62229,4.15954-3.90866,3.98847-7.46087-.31936-6.63133-.09176-13.2891-.09176-19.93585v-7.396l-22.8116,12.96559Zm48.73077-9.5204c-7.98172,4.63212-15.14014,8.69015-22.14609,12.99677-.72531.44584-.7427,2.36982-.75049,3.61007-.05842,9.28314-.0318,18.56686-.0318,28.40315,7.38777-4.06878,14.50615-7.95185,21.56549-11.93967a2.95651,2.95651,0,0,0,1.3053-2.12615C383.8803,430.94531,383.85225,421.05017,383.85225,409.8953Zm-48.84833,154.97c4.43016-2.2796,8.09708-4.60343,12.071-6.12241,8.89853-3.40137,12.52587-9.18753,11.03561-18.91809-.94843-6.19277-.17742-12.64949-.17742-19.69987-7.32808,4.11842-13.80312,7.59555-20.07292,11.41073a6.25369,6.25369,0,0,0-2.73109,4.33424C334.88218,545.331,335.00392,554.80176,335.00392,564.86532Zm48.849-57.75048c-7.62132,4.19545-14.7174,8.03119-21.70625,12.05366-.73185.42127-1.1618,1.94287-1.17085,2.95895-.0863,9.69146-.05152,19.384-.05152,29.75639,7.48907-4.19956,14.46033-8.03728,21.32749-12.05342a3.97425,3.97425,0,0,0,1.53285-2.93461C383.89907,527.29433,383.85293,517.69092,383.85293,507.11484Z" transform="translate(-137.5723 -94.71032)" />
	<path d="M198.44392,94.71032h17.76567v34.11834c9.52863-12.54244,18.595-7.5105,28.40414-2.41332,21.77876,11.31707,43.909,21.95719,65.9245,32.81533,2.70988,1.33653,5.59368,2.31968,8.43175,3.48086v31.60166L229.41563,156.65V603.31744h-91.568c-.07006-1.378-.20682-2.81292-.20692-4.24789q-.01458-208.022-.06841-416.04405c-.00142-2.89795.80955-4.22519,3.42217-5.90577,18.6522-11.9982,37.08434-24.34179,55.45655-36.76805,1.212-.81979,1.88928-3.22,1.90816-4.89535C198.5107,122.01482,198.44392,108.57084,198.44392,94.71032ZM178.50547,334.21719c-11.12367,6.17788-21.77678,11.97993-32.25382,18.08484-1.08378.63155-1.55368,3.06083-1.57194,4.66435-.13042,11.44908-.06961,22.90035-.06961,34.35091V400.254c10.58261-5.6914,20.35568-11.10136,30.29239-16.19115,2.73236-1.39962,3.70322-2.97625,3.67113-6.01475C178.42119,363.61252,178.50547,349.17447,178.50547,334.21719Zm-.13781,143.33621c-10.49978,5.92971-20.40218,11.434-30.186,17.14206-1.47354.85968-3.3925,2.65381-3.41569,4.04395-.24735,14.82612-.15367,29.6579-.15367,44.9838,11.58047-6.33766,22.63593-12.388,33.75535-18.47338Zm.13684-215.22383c-11.33177,6.55893-21.85488,12.56821-32.246,18.79806-.97536.58476-1.56273,2.5553-1.57819,3.89114-.12508,10.80224-.07017,21.60658-.07017,32.41026v11.29074c11.23727-6.1821,21.624-11.84732,31.93242-17.65178a4.13608,4.13608,0,0,0,1.87925-2.93864C178.54173,293.24322,178.5045,278.35581,178.5045,262.32957Zm-33.89438,209.824c10.96733-6.1451,21.56151-12.00436,32.03479-18.07273a5.00265,5.00265,0,0,0,1.78206-3.74757c.12358-14.61062.07848-29.22271.07848-43.8259-.38193,0-.76428-.11772-1.00663.017-10.48944,5.83056-21.00936,11.60971-31.37631,17.6518-.996.58053-1.43842,2.8104-1.44923,4.2797C144.56821,442.73475,144.61012,457.01475,144.61012,472.15358Zm33.89509-281.42136-33.72054,19.20189v46.86c10.97534-5.92652,21.527-11.54744,31.95859-17.38335.9755-.54573,1.6776-2.44618,1.68779-3.72415C178.54759,221.06688,178.50521,206.44594,178.50521,190.73222Zm5.06093,118.013c10.00224-5.34122,19.52958-10.58726,29.22326-15.50461,2.75457-1.39734,3.69736-2.99964,3.666-6.03308-.14937-14.45781-.06689-28.918-.06689-43.98148-11.12809,6.27979-21.95544,12.38986-32.82239,18.5223Zm32.737,6.20674c-2.18037,1.16738-4.09944,2.14892-5.9753,3.20719-7.95807,4.48958-15.94644,8.92879-23.81046,13.57844-1.29865.76784-2.87927,2.482-2.89721,3.77862-.20406,14.75135-.12959,29.50656-.12959,45.06245l32.81256-17.94837Zm-32.73655-77.88342c10.55676-5.66838,20.9949-11.194,31.30732-16.94564.92219-.51433,1.44253-2.491,1.45131-3.79328.09968-14.7843.06327-29.56953.06327-44.82758l-32.8219,18.606Zm-.07581,215.16552c11.51737-6.28429,22.15429-12.08821,32.6628-17.822v-47.6385c-10.67642,5.91494-20.99864,11.58663-31.2396,17.40175a3.82687,3.82687,0,0,0-1.36385,2.88279C183.46447,421.92164,183.49077,436.78583,183.49077,452.23408Zm-.00067,71.5593c9.97572-5.41648,19.61254-10.766,29.37381-15.87725,2.90523-1.52123,3.71653-3.47061,3.60416-6.63773-.25333-7.14-.07954-14.29529-.07954-21.44436V458.01055c-10.39739,6.0498-20.27176,11.66657-29.9667,17.57834a6.69006,6.69006,0,0,0-2.8056,4.75432C183.3981,494.634,183.4901,508.92944,183.4901,523.79338Z" transform="translate(-137.5723 -94.71032)" />
	<path d="M261.14483,311.15843c8.92466,3.77232,30.80935,12.80989,39.13035,16.07561h0c-.06108,6.74649-.16361,28.73268-.16361,36.40468-7.32684-2.814-32.21615-12.6889-38.9571-15.42595h0s-.02224.80111.00007-6.09237c.24953-9.80663-.01661-20.81811-.00993-30.631C261.14483,311.15843,261.07462,311.94275,261.14483,311.15843Z" transform="translate(-137.5723 -94.71032)" />
	<path d="M301.01348,491.4006v35.819c-12.291-4.82575-26.5546-10.40027-38.79576-15.38982h0c-.05871-11.27659.01115-25.23061.01115-37.23155Z" transform="translate(-137.5723 -94.71032)" />
	<path d="M311.9419,275.45772V311.3465c-12.49626-5.01657-26.55979-10.47789-38.75154-15.47416h0c-.11264-11.56354.0053-24.86854.0053-37.19279Z" transform="translate(-137.5723 -94.71032)" />
	<path d="M234.32325,382.76758c12.1432,5.25588,26.07492,11.19655,37.65547,16.126l.66849.34042c.13551,9.14881-.05061,26.29518-.05061,35.98905q-11.24846-4.46127-22.543-8.94283c-4.44962-1.76919-11.18115-4.44325-15.56427-6.36537h0C234.33582,408.19617,234.32325,394.94028,234.32325,382.76758Z" transform="translate(-137.5723 -94.71032)" />
	<path d="M272.44669,240.9438l-38.05523-15.10228V188.61776l38.05523,16.49131Z" transform="translate(-137.5723 -94.71032)" />
</svg>