<svg xmlns="http://www.w3.org/2000/svg" viewBox="0 0 798.73459 857.46035">
	<path d="M160.51155,94.11236c0-21.05872-.01505-41.83437.005-62.61.01486-15.4386,11.20652-29.07281,25.48976-31.1152,17.00375-2.43139,31.49658,6.75329,35.72843,22.916a39.92968,39.92968,0,0,1,.88145,9.87142c.07542,20.12629.03771,40.253.03771,60.758H561.18749c0-4.15194,0-8.41827.00006-12.68459.00025-16.64889-.09931-33.29855.02982-49.94642.1195-15.4015,11.63085-29.08181,25.74789-30.92572,16.79912-2.19422,30.80483,6.46463,35.2955,22.15466a42.48725,42.48725,0,0,1,1.40893,11.2912c.13352,19.963.06267,39.92743.06267,60.49033l5.49708,0q53.43683,0,106.87364.00143c30.5259.00515,54.07532,18.46442,61.05943,48.09281A58.60617,58.60617,0,0,1,798.67,155.71976q.10737,320.15592.04707,640.31185c-.00494,34.40178-27.18072,61.41487-61.68253,61.41731q-337.60088.02433-675.20167.00177C31.44875,857.449,6.34431,836.74811.91188,807.10214a72.13289,72.13289,0,0,1-.87643-12.9273Q-.02478,475.765.00471,157.355c.00123-30.86227,18.20162-54.40317,47.67315-61.441a58.73718,58.73718,0,0,1,13.30073-1.53373c32.62754-.12916,65.25581-.07466,97.88384-.08322C159.18726,94.297,159.512,94.2271,160.51155,94.11236ZM47.53631,321.40167v4.35587q.00068,223.00287.022,446.00569c.006,22.26069,18.65589,40.83814,40.96244,40.84131q314.36567.04446,628.73137-.007a33.77374,33.77374,0,0,0,6.41228-.62116c14.59217-2.84251,27.66591-16.36409,27.63244-36.276q-.377-224.50056-.14791-449.00213c-.00012-1.73833-.16961-3.47663-.2643-5.29652ZM160.51912,135.62388c-14.8738,10.27063-21.37075,33.7663-14.93838,52.66088,6.88739,20.23116,27.533,34.06233,48.90421,32.76248,21.6242-1.31519,40.633-17.46653,44.84764-38.10611,3.7249-18.24095-3.94349-40.34434-16.72705-46.98423,0,10.17135.0905,20.08212-.03905,29.99-.06262,4.78942.1851,9.75475-.96,14.32671-3.79156,15.1382-18.24912,25.20257-32.564,23.26948-17.24456-2.32871-28.463-14.651-28.51591-31.39207C160.48841,160.08072,160.51912,148.01022,160.51912,135.62388Zm463.35963-.24609c-.11657,2.41222-.25607,3.99435-.25924,5.57673-.02079,10.31318.153,20.62959-.0467,30.939-.43148,22.26769-20.474,36.98038-40.97256,30.22071-12.79993-4.221-21.247-16.09551-21.37959-30.35267-.11072-11.90156-.02274-23.805-.02274-36.04083-13.75434,9.22764-20.73454,31.61009-15.815,49.42528a48.793,48.793,0,0,0,92.41511,5.22348C645.31614,171.45435,639.79645,148.58932,623.87875,135.37779Z" />
	<path d="M518.17315,421.90855c-.0003,9.98924.05981,19.979-.01707,29.96764-.07883,10.24714-6.89314,17.13339-17.20359,17.18385q-29.96367.14665-59.92851.008c-10.666-.03985-17.71671-7.1468-17.75125-17.84074q-.09365-28.96854-.01207-57.93766c.013-11.34224,6.64076-18.72077,17.92592-18.89324q29.70761-.45413,59.42644.01265c11.19151.182,17.52733,7.29673,17.55538,18.53059C518.19254,402.59591,518.1734,412.25226,518.17315,421.90855Z" />
	<path d="M184.50978,611.989c-9.82163.00068-19.64416.08379-29.46466-.02158-10.86226-.11659-17.56558-6.92863-17.5935-17.844q-.0754-29.468.00133-58.93645c.03-10.53052,6.5697-17.68384,17.20689-17.84421q30.20685-.45549,60.42457.02433c10.70986.18573,17.24746,7.63033,17.26459,18.43885q.04592,28.96868-.00155,57.9376c-.02082,11.08211-6.8847,18.11159-17.87358,18.2233C204.4868,612.06835,194.49787,611.98829,184.50978,611.989Z" />
	<path d="M184.56909,469.08958c-9.82178-.00018-19.644.06012-29.46523-.01628-10.88389-.0847-17.62427-6.85878-17.6528-17.76821q-.07641-29.21879-.00415-58.4379c.0214-11.21087,6.43761-18.2919,17.65319-18.46443q29.708-.457,59.42718.00021c11.25791.18073,17.81572,7.57814,17.82575,18.96211.01673,18.97986-.24226,37.96426.11011,56.9376.17284,9.30842-6.46456,19.50382-18.93285,18.88284C203.89885,468.70586,194.2244,469.08976,184.56909,469.08958Z" />
	<path d="M518.1734,564.79848c-.00037,9.98924.05907,19.97886-.01714,29.96755-.07651,10.03376-6.76,17.089-16.70663,17.16787q-30.71121.24357-61.42551-.00286a16.4998,16.4998,0,0,1-16.71807-16.8283q-.24669-30.465.00732-60.9331c.07737-8.78265,6.21178-15.27676,14.91031-16.55579a31.08478,31.08478,0,0,1,4.46649-.3533c18.81076-.02347,37.62411.17019,56.43155-.08018,12.71884-.16933,19.84006,9.36528,19.18819,19.15806C517.68107,545.78627,518.17376,555.30875,518.1734,564.79848Z" />
	<path d="M327.69312,759.67166c-9.97649-.00092-19.95335.05317-29.92938-.01586-10.274-.071-17.36991-7.22265-17.39756-17.58348q-.0792-29.68318.00116-59.36681c.02826-10.20943,7.13589-17.75128,17.38762-17.8622q29.926-.32377,59.8577-.01543c10.51951.09366,17.60187,7.56168,17.62921,18.11782q.07627,29.43367.00351,58.8679c-.02326,10.69388-7.043,17.74483-17.62278,17.85727-.33253.00353-.66508.00164-.99764.00164Q342.15906,759.67269,327.69312,759.67166Z" />
	<path d="M327.81851,469.08866c-9.98817-.0003-19.97707.07452-29.96435-.02067-10.66337-.10164-17.475-7.13856-17.49481-18.00089q-.053-28.96885-.00345-57.938c.01378-11.21538,6.37077-18.4973,17.48259-18.69983q29.9543-.54594,59.92473-.00064c11.13911.202,17.47094,7.44091,17.48762,18.69144q.043,28.969-.00357,57.938c-.02311,11.09495-6.86132,17.9476-17.96375,18.0179C347.46222,469.13818,337.6402,469.089,327.81851,469.08866Z" />
	<path d="M613.97222,469.08934c-9.98518-.00028-19.97085.06612-29.95529-.01854-10.3727-.088-17.58252-6.95988-17.68964-17.40775-.203-19.804-.1712-39.61256-.0128-59.41745.08231-10.29425,6.5555-17.51629,16.97989-17.75534q30.43777-.6981,60.90158-.03046c10.67206.21665,16.92972,7.32823,16.98886,18.0661q.16215,29.45865-.00744,58.9187c-.07493,11.02431-6.78291,17.5562-17.74908,17.631C633.61006,469.14248,623.791,469.08964,613.97222,469.08934Z" />
	<path d="M613.51069,611.98976c-9.81868-.001-19.6382.07951-29.45578-.02305-10.44482-.10915-17.61239-6.91716-17.72493-17.38708-.213-19.80367-.17657-39.61229-.01421-59.41693.08633-10.5298,6.82644-17.64123,17.44167-17.80885q30.19689-.47689,60.40584.00969c10.588.18263,16.96161,7.27338,17.02123,18.00385q.16371,29.45847-.00853,58.91827c-.07512,11.04541-6.72688,17.57983-17.7103,17.68489C633.48153,612.066,623.49574,611.99079,613.51069,611.98976Z" />
	<path d="M375.25678,563.79335c-.00027,9.97785.03734,19.95593-.01058,29.93353-.0503,10.46894-7.31706,17.88635-17.79755,17.93507q-29.68008.1381-59.36119-.00232c-10.43635-.0525-17.69531-7.50734-17.72177-18.02257q-.07476-29.68392.004-59.36809c.03274-10.24754,7.25228-17.41049,17.56124-17.44049q29.92987-.08708,59.86016.001c10.26095.03115,17.38848,7.22893,17.4528,17.52927C375.30516,544.16993,375.25705,553.98179,375.25678,563.79335Z" />
	<path d="M518.17169,712.5613c-.00012,9.97747.06249,19.95544-.01756,29.93231-.08121,10.1215-7.08489,17.124-17.24206,17.15756q-30.17814.1-60.35682-.0025c-9.61272-.03305-17.16-7.2318-17.24377-16.83262q-.26553-30.429-.00232-60.86182a17.04657,17.04657,0,0,1,17.16168-17.08805q30.42253-.39357,60.85313.00865c9.99579.14055,16.74462,7.69717,16.84656,17.754.00335.33257.00122.66519.00122.99775Q518.17184,698.09393,518.17169,712.5613Z" />
	<path d="M184.44278,759.67227c-9.8095-.00067-19.61926.04494-29.4284-.01311-10.48836-.06208-17.51908-6.9685-17.55456-17.37214q-.10209-29.93024-.00261-59.861c.03035-9.94961,7.03238-17.44531,17.06263-17.569q30.17194-.37243,60.3514-.01287c10.18028.11037,17.42286,7.72,17.46261,17.82714q.11665,29.68073-.00073,59.36218c-.0424,10.45242-7.38415,17.58062-17.96323,17.62952C204.39437,759.709,194.41849,759.67288,184.44278,759.67227Z" />
</svg>