<svg xmlns="http://www.w3.org/2000/svg" viewBox="0 0 459.32429 418.64545">
	<path d="M67.55875,176.1329c2.3282-1.97078,4.36435-4.55646,7.02775-5.8215q78.93316-37.49092,158.06015-74.57173a16.34025,16.34025,0,0,1,10.19327-.98091c39.5585,10.20069,79.03947,20.70232,118.53528,31.1457,5.90571,1.56158,7.61451,3.73934,7.62034,9.77127q.03573,36.992.01082,73.984c0,1.62184,0,3.24367,0,5.36528,3.11593-.40929,5.92005-.537,8.60351-1.17348,9.5252-2.25927,18.4869.17066,27.61047,2.5794,37.919,10.01116,75.90568,19.76628,113.86019,29.64334,6.12438,1.59378,7.73679,3.75844,7.73761,10.09884q.00954,78.24369.06488,156.48726a10.30538,10.30538,0,0,1-4.90486,9.30851q-63.48435,44.28625-126.85366,88.7372a10.78026,10.78026,0,0,1-10.84543,1.443q-137.92479-50.82137-275.90922-101.481c-6.5523-2.40906-7.66192-4.10615-7.67912-11.28284q-.13218-55.15148-.25994-110.303c-.0038-1.6259-.00049-3.25182-.00049-5.57635-3.49349.22537-6.70461.3001-9.88243.665-6.72542.77219-10.57938-2.25808-10.97855-9.03207-.19311-3.27716-.0504-6.57444-.05066-9.8626-.00167-21.50651-.00086-43.013-.00086-65.26994-5.18838,1.57281-9.086-.05851-11.959-4.13952ZM363.59921,360.01569c0-24.2-.06737-48.40046.0666-72.59973.0222-4.00957-1.13877-5.624-5.35506-5.5056q-41.43176,1.16389-82.87272,1.99009c-3.91723.08175-5.39,1.38048-5.37417,5.56578q.22622,59.82709-.003,119.65517c-.01459,3.854,1.21779,5.51087,4.86,6.422,27.65733,6.9182,55.27774,13.98389,82.91,21.00225,5.19569,1.31965,5.76121.9083,5.76351-4.37788Q363.61011,396.09169,363.59921,360.01569Zm-138.04339-172.705q0-25.09287,0-50.18574c0-9.49691-.00859-9.51754-8.93523-5.80352q-60.228,25.0585-120.45034,50.13066c-2.34773.97666-4.52665,1.63313-4.50671,5.10147q.20864,36.29384.02807,72.58951c-.01326,3.64386,1.751,4.35559,4.78445,3.8667,3.08739-.49757,6.167-1.05392,9.2653-1.47178q57.561-7.76343,115.13111-15.45926c3.3723-.449,4.80746-1.7406,4.76785-5.44661C225.45033,222.86007,225.555,205.08482,225.55582,187.31071Zm200.7994,194.2441q0,46.39125.0577,92.78235c.00419,1.64459.84554,3.28706,1.29713,4.93057,1.61969-.50546,3.49082-.64819,4.8215-1.57059,21.19664-14.69307,42.30486-29.51368,63.49509-44.21611a6.73812,6.73812,0,0,0,3.2778-6.23793q-.13481-67.90572.01221-135.81172c.01018-3.93043-1.28053-5.09038-5.12246-5.2402-20.44357-.79721-40.8794-1.80834-61.31222-2.85661-5.94253-.30486-6.52382.04519-6.5247,5.886Q426.35042,335.38768,426.35522,381.55481ZM240.78546,345.39848c0-18.52572-.06422-37.05183.05525-55.57677.02335-3.62038-1.05623-5.108-4.88328-4.97q-25.07872.90387-50.17117,1.39254c-3.535.06515-4.67325,1.30656-4.66477,4.74008q.11909,48.1815.00938,96.3634c-.00575,3.01482.96,4.395,4.087,5.158,16.73459,4.0829,33.399,8.4532,50.08922,12.71827,4.85388,1.24038,5.468.78318,5.4721-4.24837Q240.80212,373.187,240.78546,345.39848Zm29.34679-159.43331c0,16.12356.07182,32.24767-.052,48.37028-.02981,3.88054,1.38709,4.99554,5.12922,4.3302,5.565-.98942,11.19172-1.637,16.79693-2.39489q21.021-2.84222,42.04656-5.65037c2.878-.38552,4.46042-1.61408,4.44742-4.91077q-.14331-36.27744-.02056-72.55575c.0058-2.66061-1.00666-4.17511-3.59956-4.80037-19.76877-4.7671-39.523-9.59446-59.29731-14.33848-4.78986-1.14913-5.43935-.55264-5.44465,4.47522Q270.11324,162.22768,270.13225,185.96517ZM163.68464,336.72579c0-15.08655-.06342-30.17359.05143-45.25926.02409-3.1651-.88613-4.74748-4.26138-4.65468q-16.57176.45553-33.14848.7172c-3.57408.05267-4.9809,1.554-4.96855,5.18594q.13485,39.65778.01569,79.31618c-.00647,3.038,1.10667,4.47657,4.17965,5.21408,10.971,2.63292,21.86624,5.58043,32.79641,8.38452,4.48042,1.14941,5.31724.52616,5.32556-4.09248Q163.71538,359.13163,163.68464,336.72579Z" transform="translate(-67.55875 -94.34718)" />
</svg>