<svg xmlns="http://www.w3.org/2000/svg" viewBox="0 0 798.88857 502.96975">
	<path d="M247.95215,370.49445C165.43819,329.53572,83.16635,288.69714,0,247.41454c6.44248-4.45871,12.25185-8.55919,18.14123-12.54181q46.04507-31.13738,92.11321-62.2407c22.81891-15.47755,45.50966-31.14323,68.3147-46.64122,30.52278-20.74287,61.13335-41.35712,91.64447-62.117,22.533-15.33155,44.95914-30.81963,67.45047-46.21233,7.18128-4.91476,14.53177-9.59159,21.58731-14.67783,4.02048-2.89831,7.417-3.972,12.59769-1.92675,13.24826,5.23017,26.87747,9.5003,40.35956,14.13916Q464.47224,33.17873,516.733,51.1694c13.61719,4.711,27.15179,9.65978,41.303,14.70676-1.96076,2.3983-3.70209,4.91072-5.81958,7.05269q-14.56961,14.73794-29.32337,29.29428-28.22246,27.78657-56.55227,55.46454-27.21634,26.67364-54.441,53.33894c-18.85687,18.48124-37.64145,37.03658-56.58032,55.43369-18.63477,18.10168-37.47089,35.99678-56.13013,54.07355-16.12164,15.61843-32.11816,31.36556-48.17336,47.05237C249.96472,368.61337,248.88431,369.61088,247.95215,370.49445Z" />
	<path d="M576.17891,71.21832l222.70966,77.77535c-71.49378,88.37752-140.24921,179.05021-212.44519,267.20866-15.66-12.68092-30.3916-24.72406-45.24854-36.61129-17.76068-14.21056-35.6795-28.22421-53.43268-42.444-12.83526-10.28069-25.45242-20.83242-38.278-31.12532-10.76105-8.636-21.71118-17.03686-32.52319-25.61016q-10.70546-8.48879-21.24366-17.18686c-2.86428-2.35994-4.845-3.89888-2.14318-6.73055.45844-.48046,2.94894-3.18715,3.41635-3.6589q43.15447-43.55917,86.30023-87.12691,23.44817-23.72584,46.73135-47.61409,22.48032-22.92514,44.95514-45.85553A13.60786,13.60786,0,0,1,576.17891,71.21832Z" />
	<path d="M575.9399,433.46571q-8.16256,9.68128-16.32892,19.36747-13.24887,15.722-26.5058,31.43711c-4.34137,5.1157-8.73364,10.19184-13.22632,15.175-4.20123,4.65991-6.06256,4.61906-11.287.351a15.58806,15.58806,0,0,0-2.97742-1.55467Q389.8648,440.41289,274.11415,382.58623c-6.06915-3.03213-6.11618-3.08431-1.16476-7.91858q19.58253-19.11928,39.24011-38.162,17.66226-17.15578,35.345-34.29055c9.52683-9.212,19.14643-18.3292,28.60721-27.608,2.0221-1.98315,3.25067-2.39694,5.707-.344,12.49039,10.43894,25.24436,20.56286,37.80539,30.91866,12.337,10.17113,24.49387,20.56012,36.83948,30.72074,12.18625,10.02954,24.50934,19.89345,36.77332,29.8289Q509.39,378.79324,525.51515,391.8525c12.26539,9.93366,24.56336,19.82772,36.78089,29.8196C566.716,425.28692,570.94448,429.13492,575.9399,433.46571Z" />
</svg>