<svg xmlns="http://www.w3.org/2000/svg" viewBox="0 0 460.43875 458.99596">
    <path d="M460.42692,221.78267q0,64.27706,0,128.55407c0,.8337-.00412,1.6674.00067,2.50107.07636,13.28139.11125,13.366-12.57982,18.56922Q342.63467,414.54385,237.418,457.67187a15.09641,15.09641,0,0,1-12.39031-.01132q-106.30365-43.45846-212.705-86.67768c-1.67746-.68262-3.444-1.14278-5.14674-1.76727C2.63813,367.55134-.00832,364.29981,0,359.455c.08383-48.67555.29231-97.35092.3739-146.02649Q.47622,152.403.38986,91.37721c.00073-7.57087,1.582-9.79344,8.85851-12.44343,70.20745-25.56841,140.46384-51.00414,210.555-76.88765a27.64906,27.64906,0,0,1,20.81583-.02478q104.611,38.41934,209.44484,76.23156c9.21221,3.34634,10.36275,5.05057,10.36278,14.97569Q460.42715,157.50564,460.42692,221.78267ZM220.30723,23.74317,20.62611,96.14927V344.738q100.22933-36.3496,199.68112-72.41722Zm60.101,262.81528V280.781q.00009-79.77095.00271-159.5419c.00107-10.13049,5.87-14.37341,15.24274-10.93283q42.64436,15.65408,85.25686,31.39513c8.06085,2.97584,9.51048,5.11923,9.51066,13.59229q.00156,83.27189-.10919,166.54345c-.01127,3.88561,1.30026,5.40264,4.7298,6.58123,10.94729,3.76217,21.77824,7.86246,32.66767,11.79454,4.09859,1.47995,8.23433,2.85686,12.58352,4.36042V96.14766L240.411,23.65023V202.24068c0,22.00578-.0448,44.01182.0923,66.01675.01007,1.61455.9502,4.23647,2.10729,4.67492C254.95359,277.6094,267.42788,281.93987,280.40825,286.55845Zm141.557,73.18983c-1.8296-.74772-2.72844-1.15164-3.65206-1.48732q-92.00112-33.43787-184.04744-66.75029a12.72461,12.72461,0,0,0-7.98363.13462q-73.08624,26.30031-146.05727,52.921c-13.51274,4.9116-26.99628,9.9036-41.06474,15.06857,1.762.76863,2.90209,1.29551,4.064,1.76858q91.04031,37.06956,182.03977,74.23869a13.78064,13.78064,0,0,0,11.6871-.00308c24.60691-10.291,49.3514-20.25219,74.03345-30.36385C347.77,390.205,384.542,375.10212,421.96528,359.74828ZM300.56913,133.77621v160.396l69.84522,25.25817c0-52.87073.02435-105.18408-.14451-157.49681-.00409-1.27143-1.92019-3.16474-3.347-3.70592-13.61411-5.16367-27.31825-10.08957-40.99023-15.101C317.58174,140.06576,309.2419,136.97471,300.56913,133.77621Z" />
    <path d="M70.39352,204.74437c0-16.17169.09642-32.34427-.0527-48.51458-.0516-5.59571,2.35746-9.01226,7.45369-11.039,29.24426-11.63019,58.43893-23.38533,87.69624-34.98242,8.51986-3.37715,14.90277,1.20261,14.90811,10.45261.01883,32.6766-.054,65.35343.06623,98.02959.02058,5.59774-2.31791,9.19747-7.34982,11.16864q-44.1507,17.2952-88.33783,34.49688c-8.07912,3.12742-14.35044-1.4024-14.37206-10.09669C70.36435,237.75448,70.3935,221.24939,70.39352,204.74437Zm20.00656,35.95937c23.84741-9.48124,46.88156-18.63914,69.9023-27.79173V134.63916c-.36446-.045-.73359-.21015-.996-.106-22.16145,8.796-44.32773,17.58045-66.42992,26.52338a4.67794,4.67794,0,0,0-2.3729,3.474C90.36675,189.69,90.40008,214.85042,90.40008,240.70374Z" />
</svg>