<svg xmlns="http://www.w3.org/2000/svg" viewBox="0 0 799.29005 760.19226">
	<path d="M563.16549,506.08511a170.4911,170.4911,0,0,0-95.52737-16.78462c-32.53156,3.69692-62.81028,14.7219-92.32008,29.94724v-45.8931H222.34638V646.419H32.51689v-5.07838c0-86.75184.02752-178.972-.0901-265.72361h0C96.35687,322.84461,164.33944,266.58886,228.233,213.77222c25.017-20.67991,50.07279-41.31293,75.42379-62.22537q22.40383,19.33867,44.84246,38.70673Q443.4171,272.15619,538.337,354.05652c7.43658,6.41661,17.52634,15.07984,24.82851,21.64561h0c.13161,41.627.018,88.75552,0,130.383Z" transform="translate(60.25534 -32.01943)" />
	<path d="M617.85325,536.54486v9.97542h11.89223c0-3.17.14242-6.11934-.02362-9.05123-.9229-16.3,11.37789-28.0035,27.57586-28.26492q26.9955-.43575,54.00272.00494c16.59566.2869,27.70295,11.86611,27.71052,28.34821q.04533,98.406-.00244,196.812c-.00922,16.57777-11.60277,28.18009-28.27321,28.27979q-26.50161.15852-53.00474.00445c-16.87267-.082-27.944-11.224-28.14728-28.1418-.02777-2.31223-.00378-4.62507-.00378-6.63906-.5926-.5141-.87071-.94162-1.08081-.91052-5.72295.846-10.1891-1.72983-14.90912-4.59727-11.49785-6.98505-23.38941-13.32014-34.97808-20.161-3.23249-1.90826-5.64225-1.92106-8.9906-.04165-39.9654,22.43253-79.795,45.127-120.19593,66.75434-16.0221,8.57689-33.26438,14.94734-50.19354,21.71744-4.268,1.70678-9.50823,1.72721-14.235,1.43744-63.55435-3.89626-125.87609-15.50206-187.59954-30.59733a220.29521,220.29521,0,0,1-26.92012-8.86086c-11.9412-4.61776-16.076-12.40205-13.05785-24.71415,1.40422-5.72817,4.21466-11.1095,6.348-16.66333,1.11911-2.91341,3.179-3.84059,6.24232-3.67058,16.125.89528,32.25392,2.24223,48.38785,2.33559,25.79221.14933,51.60349-.15708,77.37961-1.05084a173.94266,173.94266,0,0,0,53.13886-10.0922c23.32711-8.40675,43.91327-20.78063,58.19735-41.69468,8.4295-12.342,12.509-25.91329,9.9569-41.06326-1.30966-7.77417-2.039-8.72445-9.10038-5.70384C384.957,620.14,361.99776,630.12406,339.229,640.51535c-15.70041,7.16536-30.96251,15.287-46.63322,22.52138a17.39472,17.39472,0,0,1-10.98021,1.05986c-11.746-3.21191-20.01179-10.89741-24.6187-22.18868-2.84026-6.96121-1.41065-11.673,4.46508-16.2038,34.90321-26.91382,69.93812-53.65531,108.47285-75.33568,28.63616-16.11123,58.40426-29.23892,91.15332-34.7822,29.16326-4.93624,57.01375-1.6008,84.40935,9.75243,10.21839,4.23469,21.736,5.73707,32.82561,7.37421C591.14358,534.60551,604.14544,535.27273,617.85325,536.54486Z" transform="translate(60.25534 -32.01943)" />
	<path d="M667.28717,360.09842l-79.9893.00642h0c-46.40444-39.74192-95.16566-81.73417-141.48452-121.57578q-72.502-62.3632-145.0157-124.71287c-.62321-.53588-1.31543-.99164-2.2517-1.69123q-18.52338,16.06785-36.93878,32.04553Q194.32764,202.658,127.05792,261.15686C90.117,293.26624,50.05,328.14711,13.04255,360.17992h0c-22.83251.17425-50.464-.08556-73.29789-.10215h0Q118.50554,196.04961,297.186,32.01943C420.36384,141.21134,543.2995,250.18863,667.28717,360.09842Z" transform="translate(60.25534 -32.01943)" />
</svg>